HIERARCHY
ROOT hip
{
  OFFSET 0 0 0
  CHANNELS 6 Xposition Yposition Zposition Zrotation Yrotation Xrotation
  JOINT abdomen
  {
    OFFSET 0 20.6881 -0.73152
    CHANNELS 3 Zrotation Xrotation Yrotation
    JOINT chest
    {
      OFFSET 0 11.7043 -0.48768
      CHANNELS 3 Zrotation Xrotation Yrotation
      JOINT neck
      {
        OFFSET 0 22.1894 -2.19456
        CHANNELS 3 Zrotation Xrotation Yrotation
        JOINT head
        {
          OFFSET -0.24384 7.07133 1.2192
          CHANNELS 3 Zrotation Xrotation Yrotation
          JOINT leftEye
          {
            OFFSET 4.14528 8.04674 8.04672
            CHANNELS 3 Zrotation Xrotation Yrotation
            End Site
            {
              OFFSET 1 0 0
            }
          }
          JOINT rightEye
          {
            OFFSET -3.6576 8.04674 8.04672
            CHANNELS 3 Zrotation Xrotation Yrotation
            End Site
            {
              OFFSET 1 0 0
            }
          }
        }
      }
      JOINT rCollar
      {
        OFFSET -2.68224 19.2634 -4.8768
        CHANNELS 3 Zrotation Xrotation Yrotation
        JOINT rShldr
        {
          OFFSET -8.77824 -1.95073 1.46304
          CHANNELS 3 Zrotation Xrotation Yrotation
          JOINT rForeArm
          {
            OFFSET -28.1742 -1.7115 0.48768
            CHANNELS 3 Zrotation Xrotation Yrotation
            JOINT rHand
            {
              OFFSET -22.5879 0.773209 7.07136
              CHANNELS 3 Zrotation Xrotation Yrotation
              JOINT rThumb1
              {
                OFFSET -1.2192 -0.487915 3.41376
                CHANNELS 3 Zrotation Xrotation Yrotation
                JOINT rThumb2
                {
                  OFFSET -3.37035 -0.52449 3.41376
                  CHANNELS 3 Zrotation Xrotation Yrotation
                  End Site
                  {
                    OFFSET -1.78271 -1.18214 1.43049
                  }
                }
              }
              JOINT rIndex1
              {
                OFFSET -7.75947 0.938293 5.60832
                CHANNELS 3 Zrotation Xrotation Yrotation
                JOINT rIndex2
                {
                  OFFSET -2.54057 -0.884171 1.56538
                  CHANNELS 3 Zrotation Xrotation Yrotation
                  End Site
                  {
                    OFFSET -1.62519 -0.234802 1.16502
                  }
                }
              }
              JOINT rMid1
              {
                OFFSET -8.24714 1.18213 3.41376
                CHANNELS 3 Zrotation Xrotation Yrotation
                JOINT rMid2
                {
                  OFFSET -3.10165 -0.590103 1.0647
                  CHANNELS 3 Zrotation Xrotation Yrotation
                  End Site
                  {
                    OFFSET -2.48547 -0.328903 0.83742
                  }
                }
              }
              JOINT rRing1
              {
                OFFSET -8.82822 0.546677 1.51678
                CHANNELS 3 Zrotation Xrotation Yrotation
                JOINT rRing2
                {
                  OFFSET -2.60934 -0.819778 -0.0198488
                  CHANNELS 3 Zrotation Xrotation Yrotation
                  End Site
                  {
                    OFFSET -2.33842 -0.294052 0.168128
                  }
                }
              }
              JOINT rPinky1
              {
                OFFSET -8.27202 -0.0477905 -0.4584
                CHANNELS 3 Zrotation Xrotation Yrotation
                JOINT rPinky2
                {
                  OFFSET -1.82734 -0.647385 -0.700984
                  CHANNELS 3 Zrotation Xrotation Yrotation
                  End Site
                  {
                    OFFSET -1.69225 -0.51767 -0.607171
                  }
                }
              }
            }
          }
        }
      }
      JOINT lCollar
      {
        OFFSET 2.68224 19.2634 -4.8768
        CHANNELS 3 Zrotation Xrotation Yrotation
        JOINT lShldr
        {
          OFFSET 8.77824 -1.95073 1.46304
          CHANNELS 3 Zrotation Xrotation Yrotation
          JOINT lForeArm
          {
            OFFSET 28.1742 -1.7115 0.48768
            CHANNELS 3 Zrotation Xrotation Yrotation
            JOINT lHand
            {
              OFFSET 22.5879 0.773209 7.07136
              CHANNELS 3 Zrotation Xrotation Yrotation
              JOINT lThumb1
              {
                OFFSET 1.2192 -0.487915 3.41376
                CHANNELS 3 Zrotation Xrotation Yrotation
                JOINT lThumb2
                {
                  OFFSET 3.37035 -0.52449 3.41376
                  CHANNELS 3 Zrotation Xrotation Yrotation
                  End Site
                  {
                    OFFSET 1.78271 -1.18214 1.43049
                  }
                }
              }
              JOINT lIndex1
              {
                OFFSET 7.75947 0.938293 5.60832
                CHANNELS 3 Zrotation Xrotation Yrotation
                JOINT lIndex2
                {
                  OFFSET 2.54057 -0.884171 1.56538
                  CHANNELS 3 Zrotation Xrotation Yrotation
                  End Site
                  {
                    OFFSET 1.62519 -0.234802 1.16502
                  }
                }
              }
              JOINT lMid1
              {
                OFFSET 8.24714 1.18213 3.41376
                CHANNELS 3 Zrotation Xrotation Yrotation
                JOINT lMid2
                {
                  OFFSET 3.10165 -0.590103 1.0647
                  CHANNELS 3 Zrotation Xrotation Yrotation
                  End Site
                  {
                    OFFSET 2.48547 -0.328903 0.83742
                  }
                }
              }
              JOINT lRing1
              {
                OFFSET 8.82822 0.546677 1.51678
                CHANNELS 3 Zrotation Xrotation Yrotation
                JOINT lRing2
                {
                  OFFSET 2.60934 -0.819778 -0.0198488
                  CHANNELS 3 Zrotation Xrotation Yrotation
                  End Site
                  {
                    OFFSET 2.33842 -0.294052 0.168128
                  }
                }
              }
              JOINT lPinky1
              {
                OFFSET 8.27202 -0.0477905 -0.4584
                CHANNELS 3 Zrotation Xrotation Yrotation
                JOINT lPinky2
                {
                  OFFSET 1.82734 -0.647385 -0.700984
                  CHANNELS 3 Zrotation Xrotation Yrotation
                  End Site
                  {
                    OFFSET 1.69225 -0.51767 -0.607171
                  }
                }
              }
            }
          }
        }
      }
    }
  }
  JOINT rButtock
  {
    OFFSET -8.77824 4.35084 1.2192
    CHANNELS 3 Zrotation Xrotation Yrotation
    JOINT rThigh
    {
      OFFSET 0 -1.70687 -2.19456
      CHANNELS 3 Zrotation Xrotation Yrotation
      JOINT rShin
      {
        OFFSET 0 -36.8199 0.73152
        CHANNELS 3 Zrotation Xrotation Yrotation
        JOINT rFoot
        {
          OFFSET 0.73152 -45.1104 -5.12064
          CHANNELS 3 Zrotation Xrotation Yrotation
          End Site
          {
            OFFSET -1.1221 -3.69964 12.103
          }
        }
      }
    }
  }
  JOINT lButtock
  {
    OFFSET 8.77824 4.35084 1.2192
    CHANNELS 3 Zrotation Xrotation Yrotation
    JOINT lThigh
    {
      OFFSET 0 -1.70687 -2.19456
      CHANNELS 3 Zrotation Xrotation Yrotation
      JOINT lShin
      {
        OFFSET 0 -36.8199 0.73152
        CHANNELS 3 Zrotation Xrotation Yrotation
        JOINT lFoot
        {
          OFFSET -0.73152 -45.1104 -5.12064
          CHANNELS 3 Zrotation Xrotation Yrotation
          End Site
          {
            OFFSET 1.1221 -3.69964 12.103
          }
        }
      }
    }
  }
}
MOTION
Frames:	5
Frame Time:	0.03333
0.0 0.0 0.0 0.0 0.0 0.0 0.0 0.0 0.0 0.0 0.0 0.0 0.0 0.0 0.0 0.0 0.0 0.0 0.0 0.0 0.0 0.0 0.0 0.0 0.0 0.0 0.0 0.0 0.0 0.0 0.0 0.0 0.0 0.0 0.0 0.0 0.0 0.0 0.0 0.0 0.0 0.0 0.0 0.0 0.0 0.0 0.0 0.0 0.0 0.0 0.0 0.0 0.0 0.0 0.0 0.0 0.0 0.0 0.0 0.0 0.0 0.0 0.0 0.0 0.0 0.0 0.0 0.0 0.0 0.0 0.0 0.0 0.0 0.0 0.0 0.0 0.0 0.0 0.0 0.0 0.0 0.0 0.0 0.0 0.0 0.0 0.0 0.0 0.0 0.0 0.0 0.0 0.0 0.0 0.0 0.0 0.0 0.0 0.0 0.0 0.0 0.0 0.0 0.0 0.0 0.0 0.0 0.0 0.0 0.0 0.0 0.0 0.0 0.0 0.0 0.0 0.0 0.0 0.0 0.0 0.0 0.0 0.0 0.0 0.0 0.0 0.0 0.0 0.0 0.0 0.0 0.0
-0.5092 66.7175 0.1302 -149.590273 -59.762901 154.079523 12.546085 8.137017 94.426206 -6.461015 -3.495856 -88.893949 -9.016555 25.341918 -99.070209 37.86216 19.709978 108.962291 0.00356 -0.0 -0.002566 0.003307 -0.0 -0.001801 -158.211121 -26.753648 166.316617 -30.900663 -49.847818 33.651446 -85.135081 50.728024 -76.016308 -165.850366 -19.092984 151.767997 -172.516294 -10.195602 89.934414 152.32316 -41.84018 99.469399 -133.140817 12.391646 111.334327 -3.880533 21.251169 -3.559343 13.286326 -40.745037 -3.071286 -130.320971 51.430381 119.30195 0.006247 1.367862 0.430868 -155.90684 -54.681851 179.042496 -128.775165 -23.919521 -126.427978 -135.275146 -15.983704 -132.676601 56.982341 66.958164 -59.825101 65.121146 5.243061 -9.562595 1.280693 -35.432989 47.262346 -38.66445 -49.494336 -50.875152 177.055114 -14.656537 -89.646625 -12.150474 -62.903924 -11.37232 2.58211 4.069271 -1.518949 -17.728157 -9.491124 1.342555 159.172844 -2.109575 -142.495876 -19.331041 -44.238593 -0.760274 -0.002838 0.80701 -0.252468 2.717766 57.699015 -15.183966 96.726522 -47.844856 94.978024 -5.035882 4.47972 -0.141241 -0.000646 -1.5e-05 0.000538 -8.991264 1.66078 92.124633 55.390308 -10.871536 94.5608 -133.108498 45.232622 -132.760982 -0.004801 -1.5e-05 -0.002694 68.770972 -59.597807 147.831676 84.968893 1.07828 136.152858 -33.937051 48.448983 131.036077
-0.6948 66.6345 0.13879999999999998 -149.924143 -60.036881 154.657958 12.461438 8.92674 71.876023 -5.540125 -5.908871 -66.390089 -9.328891 24.471408 -92.816959 38.571036 15.9621 103.778034 -0.004544 -0.0 0.00082 0.001288 -0.0 -0.001208 -158.998303 -39.071939 168.601686 -20.341772 -74.535925 36.607434 9.903178 58.634374 -155.186565 -141.862081 33.534483 124.912218 -174.108441 -11.77334 89.873955 -149.183361 6.419051 77.889172 22.035216 -39.125955 -5.840945 -96.279592 45.854024 79.224456 -144.293076 31.09141 131.867422 155.98574 -70.675839 122.858165 -145.112552 -0.390511 -179.006193 -152.293845 76.181496 167.060487 -31.550489 -42.156311 -30.50885 67.432669 85.61426 -28.323307 50.499003 65.799603 -53.260554 66.194242 6.39275 -12.247542 170.663206 7.606847 171.476479 84.201345 83.112985 -89.852251 3.603292 3.516089 -0.660562 19.475588 17.460601 -18.909468 44.876856 39.2236 -35.142627 -13.808609 -10.893703 3.327442 144.966125 30.039776 -132.427809 -23.980277 -52.406988 -3.030512 -0.002321 0.567687 -0.180015 -10.320751 -0.496707 0.130335 178.36754 85.082436 139.525053 -6.522434 14.869809 -2.681875 -0.001298 -0.002093 0.000489 -7.814368 3.044003 -13.066407 6.857185 48.519673 102.761997 -89.847397 -26.181905 -160.378351 0.005692 0.001342 0.005445 69.377783 -60.056258 163.534943 82.838351 -25.29917 5.011984 -129.314703 -52.01873 125.911072
-0.831 66.5695 0.1099 -149.95503 -60.158526 154.930882 15.047764 5.699224 -172.483214 -0.792684 4.084625 178.08039 2.144025 11.80547 17.239809 -5.048127 -25.794388 -3.307766 0.001552 0.0 0.00036 0.001552 0.0 0.00036 -124.21804 58.703257 127.92444 73.733145 -5.536165 61.160503 -179.876115 32.506918 31.024266 -142.961533 32.503869 125.956798 -178.026378 -15.590998 89.537329 -64.603893 0.727266 15.334513 -50.262757 40.794623 39.914505 -18.905696 31.325132 9.308356 25.105648 -62.821277 2.175603 -18.921723 42.991851 15.128428 -145.122884 0.895128 -179.409313 -145.688514 -49.561106 -167.946266 -155.88597 51.850151 -149.879175 -140.523559 -8.185015 -135.980314 3.023198 14.986098 -3.767682 -75.97102 -19.661058 -100.54145 -170.699914 20.729491 -139.274655 -108.077159 -60.164903 -116.204209 170.498253 -8.180401 -89.949201 20.954858 -39.102987 -4.233046 12.378757 17.144383 -8.179217 154.477932 -0.434105 -109.502324 138.69653 38.576043 -127.080472 -7.13026 -11.281746 0.837336 145.049421 -3.827117 177.922029 153.950179 -11.643866 177.6443 175.791754 84.365283 141.83714 160.661869 51.3005 147.984067 179.999682 75.748546 0.000479 148.83382 76.199752 -44.143031 -38.330045 20.422315 113.298692 -47.475073 42.038525 -44.919436 -179.981386 75.748546 -0.014246 -151.921026 -3.337645 131.680445 74.135968 -57.741008 -29.481484 -147.816411 14.076541 64.717853
-0.9414 66.4984 0.0336 -149.684029 -60.153813 154.940624 12.647522 8.852135 68.601379 -5.199169 -6.218068 -62.910234 -8.548826 26.650002 -106.829691 36.879829 24.136722 115.412663 -0.002145 -0.0 0.001127 0.003429 -0.0 -0.000115 -2.309675 11.92901 2.913717 52.454805 -26.645783 -32.835933 -25.344052 21.95365 132.237356 -14.390515 -73.948275 -23.410827 -161.225528 1.067403 89.089655 4.588289 -50.56897 15.461593 -138.42911 4.995474 114.823016 -52.370706 55.036021 35.299213 -163.896828 -16.892742 144.51413 -173.277359 -33.794734 143.476668 -132.737852 -52.107545 -154.980311 -145.371576 -46.331712 -172.226926 -149.565975 27.219227 -145.561777 -151.547352 23.007625 -144.046127 119.982981 60.851703 -123.601063 64.761275 -16.472059 19.233504 177.588487 -0.299544 169.620573 150.38277 78.103481 -152.298107 154.893946 7.121136 -87.679045 138.97644 0.942896 -67.912168 154.546094 -23.098573 -122.006185 9.407436 34.1246 -1.551598 24.789573 43.750776 -19.496765 -17.575145 -40.820464 0.292299 1.451196 23.540814 -7.823804 -1.285433 46.476865 -8.876078 155.186034 49.136628 149.51381 163.373309 57.322456 146.971685 -0.06146 -0.001441 -0.049665 -7.031863 1.870042 -99.751556 -42.059397 2.418453 118.961314 -64.991817 38.081063 -23.009275 -0.002507 0.000144 -0.003156 71.219146 -60.324361 178.730032 73.906056 -30.067978 -117.398633 -90.486406 -35.811644 10.693753
